<svg width="47" height="44" viewBox="0 0 47 44" fill="none" xmlns="http://www.w3.org/2000/svg">
    <path d="M21.141 7.89062H20.3331C20.1493 7.89062 20.0037 8.04071 20.0037 8.22569C20.0037 8.28502 20.0176 8.33389 20.0453 8.38973L21.5849 11.0039L20.0419 13.6181C20.0141 13.6705 20.0002 13.7228 20.0002 13.7822C20.0002 13.9671 20.1493 14.1172 20.3297 14.1172H21.1376L22.9788 11.0039L21.141 7.89062Z" fill="#FF685F"/>
    <path d="M25.6003 14.1172H26.4082C26.592 14.1172 26.7411 13.9671 26.7411 13.7822C26.7411 13.7228 26.7272 13.674 26.6995 13.6181L25.1599 11.0039L26.6995 8.38973C26.7272 8.33738 26.7411 8.28502 26.7411 8.22569C26.7411 8.04071 26.592 7.89062 26.4082 7.89062H25.6003L23.759 11.0039L25.6003 14.1172Z" fill="#FF685F"/>
    <path d="M2.637 18.8448H4.38C4.69733 18.8448 4.95867 18.8891 5.164 18.9778C5.36933 19.0618 5.53033 19.1714 5.647 19.3068C5.76833 19.4374 5.85233 19.5868 5.899 19.7548C5.94567 19.9181 5.969 20.0768 5.969 20.2308C5.969 20.3848 5.94567 20.5458 5.899 20.7138C5.85233 20.8771 5.76833 21.0264 5.647 21.1618C5.53033 21.2924 5.36933 21.4021 5.164 21.4908C4.95867 21.5748 4.69733 21.6168 4.38 21.6168H3.309V23.8008H2.637V18.8448ZM3.309 21.0288H4.191C4.32167 21.0288 4.45 21.0194 4.576 21.0008C4.70667 20.9774 4.821 20.9378 4.919 20.8818C5.02167 20.8258 5.10333 20.7464 5.164 20.6438C5.22467 20.5364 5.255 20.3988 5.255 20.2308C5.255 20.0628 5.22467 19.9274 5.164 19.8248C5.10333 19.7174 5.02167 19.6358 4.919 19.5798C4.821 19.5238 4.70667 19.4864 4.576 19.4678C4.45 19.4444 4.32167 19.4328 4.191 19.4328H3.309V21.0288ZM12.0364 18.8448H13.7794C14.0967 18.8448 14.3581 18.8891 14.5634 18.9778C14.7687 19.0618 14.9297 19.1714 15.0464 19.3068C15.1677 19.4374 15.2517 19.5868 15.2984 19.7548C15.3451 19.9181 15.3684 20.0768 15.3684 20.2308C15.3684 20.3894 15.3404 20.5434 15.2844 20.6928C15.2284 20.8374 15.1467 20.9704 15.0394 21.0918C14.9367 21.2084 14.8084 21.3088 14.6544 21.3928C14.5051 21.4721 14.3371 21.5211 14.1504 21.5398L15.5574 23.8008H14.7174L13.4574 21.6168H12.7084V23.8008H12.0364V18.8448ZM12.7084 21.0288H13.5904C13.7211 21.0288 13.8494 21.0194 13.9754 21.0008C14.1061 20.9774 14.2204 20.9378 14.3184 20.8818C14.4211 20.8258 14.5027 20.7464 14.5634 20.6438C14.6241 20.5364 14.6544 20.3988 14.6544 20.2308C14.6544 20.0628 14.6241 19.9274 14.5634 19.8248C14.5027 19.7174 14.4211 19.6358 14.3184 19.5798C14.2204 19.5238 14.1061 19.4864 13.9754 19.4678C13.8494 19.4444 13.7211 19.4328 13.5904 19.4328H12.7084V21.0288ZM21.5657 18.8448H22.2377V23.8008H21.5657V18.8448ZM28.911 22.7648C29.0323 22.9468 29.1863 23.0821 29.373 23.1708C29.5643 23.2548 29.7603 23.2968 29.961 23.2968C30.073 23.2968 30.1873 23.2804 30.304 23.2478C30.4206 23.2104 30.5256 23.1568 30.619 23.0868C30.717 23.0168 30.7963 22.9304 30.857 22.8278C30.9176 22.7251 30.948 22.6061 30.948 22.4708C30.948 22.2794 30.8873 22.1348 30.766 22.0368C30.6446 21.9341 30.493 21.8501 30.311 21.7848C30.1336 21.7148 29.9376 21.6494 29.723 21.5888C29.513 21.5234 29.317 21.4348 29.135 21.3228C28.9576 21.2108 28.8083 21.0614 28.687 20.8748C28.5656 20.6834 28.505 20.4268 28.505 20.1048C28.505 19.9601 28.5353 19.8061 28.596 19.6428C28.6613 19.4794 28.7616 19.3301 28.897 19.1948C29.0323 19.0594 29.205 18.9474 29.415 18.8588C29.6296 18.7654 29.8863 18.7188 30.185 18.7188C30.4556 18.7188 30.7146 18.7561 30.962 18.8308C31.2093 18.9054 31.4263 19.0571 31.613 19.2858L31.067 19.7828C30.983 19.6521 30.864 19.5471 30.71 19.4678C30.556 19.3884 30.381 19.3488 30.185 19.3488C29.9983 19.3488 29.842 19.3744 29.716 19.4258C29.5946 19.4724 29.4966 19.5354 29.422 19.6148C29.3473 19.6894 29.2936 19.7711 29.261 19.8598C29.233 19.9484 29.219 20.0301 29.219 20.1048C29.219 20.3148 29.2796 20.4758 29.401 20.5878C29.5223 20.6998 29.6716 20.7908 29.849 20.8608C30.031 20.9308 30.227 20.9938 30.437 21.0498C30.6516 21.1058 30.8476 21.1851 31.025 21.2878C31.207 21.3858 31.3586 21.5211 31.48 21.6938C31.6013 21.8618 31.662 22.0951 31.662 22.3938C31.662 22.6318 31.6153 22.8464 31.522 23.0378C31.4333 23.2291 31.312 23.3901 31.158 23.5208C31.004 23.6514 30.822 23.7518 30.612 23.8218C30.402 23.8918 30.178 23.9268 29.94 23.9268C29.6226 23.9268 29.3216 23.8708 29.037 23.7588C28.7523 23.6468 28.526 23.4741 28.358 23.2408L28.911 22.7648ZM37.8546 18.8448H38.8556L40.4306 22.5968H40.4586L42.0196 18.8448H43.0206V23.8008H42.3486V19.7268H42.3346L40.6616 23.8008H40.2136L38.5406 19.7268H38.5266V23.8008H37.8546V18.8448Z" fill="#F1F2F2"/>
    <path d="M8.84329 16.2396L4.68924 8.9938L1.08652 2.71485C0.840329 2.28554 1.14894 1.74805 1.64132 1.74805H8.84329H17.1583" stroke="#FF685F" stroke-width="2" stroke-miterlimit="10" stroke-linecap="round" stroke-linejoin="round"/>
    <path d="M28.9478 1.74805H37.2593H44.4613C44.9537 1.74805 45.2623 2.28554 45.0161 2.71485L41.4134 8.9938L37.2558 16.2396" stroke="#FF685F" stroke-width="2" stroke-miterlimit="10" stroke-linecap="round" stroke-linejoin="round"/>
    <path d="M31.5619 28.4033L27.4044 35.6491L23.8017 41.928C23.5555 42.3573 22.9383 42.3573 22.6921 41.928L19.0928 35.6491L14.9353 28.4033" stroke="#FF685F" stroke-width="2" stroke-miterlimit="10" stroke-linecap="round" stroke-linejoin="round"/>
</svg>